<svg width="164" height="36" viewBox="0 0 164 36" fill="none" xmlns="http://www.w3.org/2000/svg">
<path fill-rule="evenodd" clip-rule="evenodd" d="M58.859 18C58.859 12.111 61.813 7.4 67.14 7.4C72.468 7.4 75.421 12.111 75.421 18C75.421 23.89 72.467 28.6 67.141 28.6C61.813 28.6 58.859 23.89 58.859 18ZM67.14 25.66C69.212 25.66 70.094 22.126 70.094 18.008C70.094 13.888 69.205 10.356 67.14 10.356C65.075 10.356 64.186 13.889 64.186 18.008C64.179 22.126 65.068 25.66 67.14 25.66ZM3.843 7.7V13.296H4.137L7.98 7.7H13.3L6.202 14.174L6.496 14.467L19.51 7.693V12.404L7.973 16.523V16.815L19.51 15.787V20.206L7.973 19.178V19.471L19.51 23.589V28.301L6.496 21.526L6.202 21.819L13.3 28.293H7.98L4.137 22.697H3.843V28.293H0V7.686H3.843V7.7ZM23.073 7.7H28.1L27.806 20.063H28.1L34.015 7.7H38.453V28.308H33.427L33.721 15.944H33.427L27.51 28.309H23.072L23.073 7.7ZM47.028 7.7H42.002V28.308H47.028V19.178H51.165V28.308H56.191V7.7H51.165V15.652H47.028V7.7ZM92.278 7.7H78.088V28.308H83.115V11.233H87.252V28.308H92.278V7.7ZM94.938 18C94.938 12.111 97.892 7.4 103.22 7.4C108.54 7.4 111.501 12.111 111.501 18C111.501 23.89 108.547 28.6 103.22 28.6C97.9 28.6 94.938 23.89 94.938 18ZM103.22 25.66C105.292 25.66 106.174 22.126 106.174 18.008C106.174 13.888 105.285 10.356 103.22 10.356C101.148 10.356 100.266 13.889 100.266 18.008C100.266 22.126 101.148 25.66 103.22 25.66ZM119.187 7.7H114.161V28.308H118.599L124.515 15.944H124.809L124.515 28.308H129.541V7.7H125.103L119.187 20.063H118.893L119.187 7.7ZM142.856 21.241L147.588 21.826C146.699 25.946 144.634 28.6 140.224 28.6C134.904 28.6 132.208 23.89 132.208 18C132.208 12.111 134.897 7.4 140.224 7.4C144.541 7.4 146.699 10.049 147.588 13.875L142.856 15.052C142.562 12.989 141.701 10.342 140.224 10.342C138.453 10.342 137.535 13.875 137.535 17.993C137.535 22.083 138.453 25.645 140.224 25.645C141.673 25.66 142.554 23.304 142.856 21.241ZM154.686 7.701H149.954V28.308H154.686V19.178H154.98L158.529 28.308H164L158.823 17.708L163.849 7.7H158.823L154.98 16.83H154.686V7.7V7.701Z" fill="white"/>
</svg>
