<svg width="164" height="22" viewBox="0 0 164 22" fill="none" xmlns="http://www.w3.org/2000/svg">
<path fill-rule="evenodd" clip-rule="evenodd" d="M58.859 11C58.859 5.111 61.813 0.4 67.14 0.4C72.468 0.4 75.421 5.111 75.421 11C75.421 16.89 72.467 21.6 67.141 21.6C61.813 21.6 58.859 16.89 58.859 11ZM67.14 18.66C69.212 18.66 70.094 15.126 70.094 11.008C70.094 6.888 69.205 3.356 67.14 3.356C65.075 3.356 64.186 6.889 64.186 11.008C64.179 15.126 65.068 18.66 67.14 18.66ZM3.843 0.7V6.296H4.137L7.98 0.7H13.3L6.202 7.174L6.496 7.467L19.51 0.693V5.404L7.973 9.523V9.815L19.51 8.787V13.206L7.973 12.178V12.471L19.51 16.589V21.301L6.496 14.526L6.202 14.819L13.3 21.293H7.98L4.137 15.697H3.843V21.293H0V0.686H3.843V0.7ZM23.073 0.7H28.1L27.806 13.063H28.1L34.015 0.7H38.453V21.308H33.427L33.721 8.944H33.427L27.51 21.309H23.072L23.073 0.7ZM47.028 0.7H42.002V21.308H47.028V12.178H51.165V21.308H56.191V0.7H51.165V8.652H47.028V0.7ZM92.278 0.7H78.088V21.308H83.115V4.233H87.252V21.308H92.278V0.7ZM94.938 11C94.938 5.111 97.892 0.4 103.22 0.4C108.54 0.4 111.501 5.111 111.501 11C111.501 16.89 108.547 21.6 103.22 21.6C97.9 21.6 94.938 16.89 94.938 11ZM103.22 18.66C105.292 18.66 106.174 15.126 106.174 11.008C106.174 6.888 105.285 3.356 103.22 3.356C101.148 3.356 100.266 6.889 100.266 11.008C100.266 15.126 101.148 18.66 103.22 18.66ZM119.187 0.7H114.161V21.308H118.599L124.515 8.944H124.809L124.515 21.308H129.541V0.7H125.103L119.187 13.063H118.893L119.187 0.7ZM142.856 14.241L147.588 14.826C146.699 18.946 144.634 21.6 140.224 21.6C134.904 21.6 132.208 16.89 132.208 11C132.208 5.111 134.897 0.4 140.224 0.4C144.541 0.4 146.699 3.049 147.588 6.875L142.856 8.052C142.562 5.989 141.701 3.342 140.224 3.342C138.453 3.342 137.535 6.875 137.535 10.993C137.535 15.083 138.453 18.645 140.224 18.645C141.673 18.66 142.554 16.304 142.856 14.241ZM154.686 0.701H149.954V21.308H154.686V12.178H154.98L158.529 21.308H164L158.823 10.708L163.849 0.7H158.823L154.98 9.83H154.686V0.7V0.701Z" fill="black"/>
</svg>
